<?xml version="1.0" encoding="iso-8859-1"?>
<!-- Generator: Adobe Illustrator 18.0.0, SVG Export Plug-In . SVG Version: 6.00 Build 0)  -->
<!DOCTYPE svg PUBLIC "-//W3C//DTD SVG 1.0//EN" "http://www.w3.org/TR/2001/REC-SVG-20010904/DTD/svg10.dtd">
<svg version="1.0" id="Layer_1" xmlns="http://www.w3.org/2000/svg" xmlns:xlink="http://www.w3.org/1999/xlink" x="0px" y="0px"
	 viewBox="0 0 110 110" style="enable-background:new 0 0 110 110;" xml:space="preserve">
<path style="fill:#FF6D20;" d="M94.555,46.548h-6.263l-20.707-21H25.28L14.5,38.963v7.584H3v16.123l9.737,9.755
	c0.111,6.65,5.551,12.026,12.226,12.026c6.296,0,11.495-4.782,12.159-10.905H51.5h1h21.621c0.664,6.123,5.863,10.905,12.159,10.905
	s11.494-4.782,12.158-10.905h6.062h1h1.5v-14.66L94.555,46.548z M84.78,46.548h-5.241l-3.256-3.256l1.874-1.874l-0.707-0.707
	l-4.797,4.797l0.707,0.707l2.216-2.216l2.549,2.549H45v-18.5h21.538L84.78,46.548z M17,39.843l9.478-11.796H42.5v18.5H17V39.843z
	 M24.964,81.952c-5.366,0-9.732-4.366-9.732-9.732c0-5.366,4.366-9.732,9.732-9.732c5.366,0,9.732,4.366,9.732,9.732
	C34.696,77.587,30.33,81.952,24.964,81.952z M37.138,71.048c-0.592-6.196-5.826-11.059-12.174-11.059
	c-5.72,0-10.534,3.947-11.865,9.26L5.5,61.637V49.048h46v22H37.138z M86.279,81.952c-5.366,0-9.732-4.366-9.732-9.732
	c0-5.366,4.366-9.732,9.732-9.732c5.366,0,9.731,4.366,9.731,9.732C96.011,77.587,91.645,81.952,86.279,81.952z M98.453,71.048
	c-0.592-6.196-5.825-11.059-12.174-11.059c-6.349,0-11.582,4.863-12.174,11.059H52.5v-22h41.025L104.5,59.929v11.118H98.453z"/>
</svg>
