<?xml version="1.0" encoding="iso-8859-1"?>
<!-- Generator: Adobe Illustrator 18.0.0, SVG Export Plug-In . SVG Version: 6.00 Build 0)  -->
<!DOCTYPE svg PUBLIC "-//W3C//DTD SVG 1.0//EN" "http://www.w3.org/TR/2001/REC-SVG-20010904/DTD/svg10.dtd">
<svg version="1.0" id="Layer_1" xmlns="http://www.w3.org/2000/svg" xmlns:xlink="http://www.w3.org/1999/xlink" x="0px" y="0px"
	 viewBox="0 0 110 110" style="enable-background:new 0 0 110 110;" xml:space="preserve">
<path style="fill:#FF6D20;" d="M65.199,43.139l-7.975-11.869l-8.933,14.151L0.085,44.626l30.625,34.103l53.283-6.08l25.92-35.981
	C109.915,36.668,69.844,42.523,65.199,43.139z M71.422,44.801c3.987-0.56,9.298-1.313,14.607-2.069
	c5.056-0.72,10.109-1.441,14.017-2L73.064,54.845l-6.312-9.394C67.909,45.293,69.511,45.069,71.422,44.801z M70.835,56.011
	L66.23,58.42l-8.205-1.781l-0.302-20.143L70.835,56.011z M56.727,36.74l0.295,19.681l-11.185-2.427
	C47.912,50.7,53.004,42.636,56.727,36.74z M46.728,47.898l-3.381,5.356c-0.041,0.065-0.073,0.116-0.11,0.176l-27.715-6.015
	L46.728,47.898z M31.709,76.099L6.487,48.012l57.365,12.449L33.01,75.951L31.709,76.099z M35.893,75.622l29.514-14.823l1.178,0.256
	l0.481-0.252l13.928,9.672L35.893,75.622z M82.612,70.291L82.5,70.303L68.066,60.28l34.912-18.262L82.612,70.291z"/>
</svg>
