<?xml version="1.0" encoding="iso-8859-1"?>
<!-- Generator: Adobe Illustrator 18.0.0, SVG Export Plug-In . SVG Version: 6.00 Build 0)  -->
<!DOCTYPE svg PUBLIC "-//W3C//DTD SVG 1.0//EN" "http://www.w3.org/TR/2001/REC-SVG-20010904/DTD/svg10.dtd">
<svg version="1.0" id="Layer_1" xmlns="http://www.w3.org/2000/svg" xmlns:xlink="http://www.w3.org/1999/xlink" x="0px" y="0px"
	 viewBox="0 0 110 110" style="enable-background:new 0 0 110 110;" xml:space="preserve">
<g>
	<path style="fill:#FF6D20;" d="M95.75,35.268V15.75H76.233l2.05,2.05H31.718l2.05-2.05H14.25v19.518l3.026-3.026v45.517
		l-3.026-3.026V94.25h19.518l-2.065-2.065h13.3l0.041,0.091l18.988,0.043l0.059-0.134h14.207l-2.065,2.065H95.75V74.732
		l-4.089,4.089V31.178L95.75,35.268z M93.25,18.25v10.982L82.268,18.25H93.25z M16.75,18.25h10.982L16.75,29.232V18.25z
		 M16.75,91.75V80.768L27.733,91.75H16.75z M46.62,89.684l-8.526-18.98l8.471-8.471l15.74-0.003l8.543,8.544l-8.385,18.911H46.62z
		 M93.25,91.75H82.268L93.25,80.768V91.75z M89.16,81.322l-8.362,8.363H65.199l8.631-19.465L63.341,59.73L45.53,59.733
		L35.107,70.156l8.773,19.528H29.202l-9.426-9.426V29.741l9.441-9.441h51.565l8.378,8.378V81.322z"/>
	<path style="fill:#FF6D20;" d="M79.941,51.027c-1.48,0-2.868,0.573-3.909,1.614l-0.165,0.165l-0.262-0.262
		c-0.977-0.977-2.303-1.514-3.735-1.514c-1.5,0-2.963,0.6-4.023,1.651l-0.013,0.013c-2.154,2.167-2.203,5.633-0.107,7.729
		l6.292,6.292c0.494,0.494,1.15,0.765,1.849,0.765c0.698,0,1.354-0.272,1.848-0.766l6.168-6.168
		c1.048-1.048,1.625-2.445,1.625-3.935c0-1.49-0.577-2.887-1.66-3.969C82.809,51.6,81.421,51.027,79.941,51.027z M82.117,58.777
		l-6.168,6.168c-0.044,0.045-0.118,0.044-0.162,0l-6.292-6.292c-1.105-1.105-1.052-3.03,0.112-4.198
		c0.591-0.589,1.416-0.927,2.263-0.927c0.764,0,1.463,0.278,1.968,0.782l2.03,2.03l1.933-1.933c0.568-0.568,1.329-0.882,2.141-0.882
		c0.812,0,1.572,0.313,2.175,0.917c0.576,0.575,0.893,1.345,0.893,2.167C83.009,57.432,82.692,58.201,82.117,58.777z"/>
	<path style="fill:#FF6D20;" d="M54.469,31.874c-7.448,0-13.507,6.059-13.507,13.507s6.059,13.507,13.507,13.507
		s13.507-6.059,13.507-13.507S61.916,31.874,54.469,31.874z M54.469,56.388c-6.069,0-11.007-4.938-11.007-11.007
		s4.938-11.007,11.007-11.007s11.007,4.938,11.007,11.007S60.538,56.388,54.469,56.388z"/>
</g>
</svg>
