<?xml version="1.0" encoding="iso-8859-1"?>
<!-- Generator: Adobe Illustrator 18.0.0, SVG Export Plug-In . SVG Version: 6.00 Build 0)  -->
<!DOCTYPE svg PUBLIC "-//W3C//DTD SVG 1.0//EN" "http://www.w3.org/TR/2001/REC-SVG-20010904/DTD/svg10.dtd">
<svg version="1.0" id="Layer_1" xmlns="http://www.w3.org/2000/svg" xmlns:xlink="http://www.w3.org/1999/xlink" x="0px" y="0px"
	 viewBox="0 0 110 110" style="enable-background:new 0 0 110 110;" xml:space="preserve">
<g>
	<path style="fill:#FF6D20;" d="M88.027,69.598H59.185v-1H88.25v-1.25c0-16.985-12.648-31.037-29.065-33.104v-3.841h2.434
		c1.103,0,2-0.897,2-2s-0.897-2-2-2h-13c-1.103,0-2,0.897-2,2s0.897,2,2,2h2.434v3.81C34.521,36.173,21.75,50.28,21.75,67.348v1.25
		h29.303v1H22.387l-6.137,6.157v7.843h77.5v-7.816L88.027,69.598z M47.619,28.402c0-0.552,0.448-1,1-1h13c0.552,0,1,0.448,1,1
		s-0.448,1-1,1h-13C48.068,29.402,47.619,28.954,47.619,28.402z M52.053,30.582h6.132v3.545c-1.048-0.1-2.11-0.156-3.185-0.156
		c-0.994,0-1.975,0.052-2.947,0.138V30.582z M55.119,36.471c16.606,0,30.193,13.178,30.851,29.626H24.268
		C24.926,49.65,38.513,36.471,55.119,36.471z M52.053,68.598h6.132v1h-6.132V68.598z M91.25,81.098h-72.5v-4.31l4.675-4.69h63.51
		l4.316,4.664V81.098z"/>
	<path style="fill:#FF6D20;" d="M74.367,47.877c-4.216-4.247-9.617-6.711-15.617-6.711v1c5.5,0,10.88,2.359,14.907,6.415
		c4.001,4.031,6.136,9.016,6.136,15.016h1C80.792,57.598,78.555,52.097,74.367,47.877z"/>
</g>
</svg>
