<?xml version="1.0" encoding="iso-8859-1"?>
<!-- Generator: Adobe Illustrator 18.0.0, SVG Export Plug-In . SVG Version: 6.00 Build 0)  -->
<!DOCTYPE svg PUBLIC "-//W3C//DTD SVG 1.0//EN" "http://www.w3.org/TR/2001/REC-SVG-20010904/DTD/svg10.dtd">
<svg version="1.0" id="Layer_1" xmlns="http://www.w3.org/2000/svg" xmlns:xlink="http://www.w3.org/1999/xlink" x="0px" y="0px"
	 viewBox="0 0 110 110" style="enable-background:new 0 0 110 110;" xml:space="preserve">
<path style="fill:#FF6D20;" d="M91.527,33.582H70.83V21.418H39.556v12.164h-20.67l-6.137,6.157v42.434l6.121,6.408h72.672
	l5.707-6.435V39.766L91.527,33.582z M26.041,86.082v-50h8.45v6.801l-5.63,2.201l5.63,14.404v26.595H26.041z M32.1,46.502
	l8.103-3.167l5.02,12.843l-8.103,3.167L32.1,46.502z M35.491,62.046l0.21,0.538l12.76-4.988l-6.84-17.5l-6.13,2.396v-6.41h38.975
	v29.089l-13.25,4.108l4.057,13.086l9.193-2.85v6.567H35.491V62.046z M66.921,79.237l-2.576-8.31l13.171-4.083l2.576,8.31
	L66.921,79.237z M75.466,86.082v-6.877L83.22,76.8l-4.057-13.085l-3.697,1.146V36.082h8.45v50H75.466z M42.056,23.918H68.33v9.664
	H42.056V23.918z M15.25,81.172V40.772l4.675-4.69h5.116v50H19.94L15.25,81.172z M94.75,81.198l-4.332,4.884h-5.502v-50h5.518
	l4.316,4.664V81.198z"/>
</svg>
