<?xml version="1.0" encoding="iso-8859-1"?>
<!-- Generator: Adobe Illustrator 18.0.0, SVG Export Plug-In . SVG Version: 6.00 Build 0)  -->
<!DOCTYPE svg PUBLIC "-//W3C//DTD SVG 1.0//EN" "http://www.w3.org/TR/2001/REC-SVG-20010904/DTD/svg10.dtd">
<svg version="1.0" id="Layer_1" xmlns="http://www.w3.org/2000/svg" xmlns:xlink="http://www.w3.org/1999/xlink" x="0px" y="0px"
	 viewBox="0 0 110 110" style="enable-background:new 0 0 110 110;" xml:space="preserve">
<g>
	<path style="fill:#FF6D20;" d="M84.966,17H29.535v4.5h-4.5V93h55.431v-4.5h4.5V17z M77.965,90.5H27.534V24h50.431V90.5z M82.466,86
		h-2V21.5h-48.43v-2h50.431V86z"/>
	<path style="fill:#FF6D20;" d="M47.271,65h10.5V53.5h11.5V43h-11.5V31.5h-10.5V43h-11.5v10.5h11.5V65z M36.771,52.5V44h11.5V32.5
		h8.5V44h11.5v8.5h-11.5V64h-8.5V52.5H36.771z"/>
	<rect x="36.271" y="70.5" style="fill:#FF6D20;" width="32.5" height="2.5"/>
	<rect x="36.271" y="76" style="fill:#FF6D20;" width="32.5" height="2.5"/>
	<rect x="36.271" y="81.5" style="fill:#FF6D20;" width="32.5" height="2.5"/>
</g>
</svg>
