<?xml version="1.0" encoding="iso-8859-1"?>
<!-- Generator: Adobe Illustrator 18.0.0, SVG Export Plug-In . SVG Version: 6.00 Build 0)  -->
<!DOCTYPE svg PUBLIC "-//W3C//DTD SVG 1.0//EN" "http://www.w3.org/TR/2001/REC-SVG-20010904/DTD/svg10.dtd">
<svg version="1.0" id="Layer_1" xmlns="http://www.w3.org/2000/svg" xmlns:xlink="http://www.w3.org/1999/xlink" x="0px" y="0px"
	 viewBox="0 0 110 110" style="enable-background:new 0 0 110 110;" xml:space="preserve">
<path style="fill:#FF6D20;" d="M84.351,68.167l-1.049-18.413l18.35-18.583L8.348,24.363l48.535,61.273l16.333-22.634L84.351,68.167z
	 M57.022,46.438l-0.476-4.274l24.276,8.028l0.609,10.695l-3.494-4.427L57.022,46.438z M57.017,81.179l-4.645-34.197l21.788,10.44
	L57.017,81.179z M59.342,40.456l36.716-7.177l-14.38,14.563L59.342,40.456z M92.292,32.996l-34.886,6.819l-36.34-12.017
	L92.292,32.996z M55.502,41.819l0.457,4.11L29.297,33.153L55.502,41.819z M51.292,46.465l4.605,33.902L15.434,29.283L51.292,46.465z
	 M74.768,60.852l1.697-2.29l4.125,5.106L74.768,60.852z"/>
</svg>
