<?xml version="1.0" encoding="iso-8859-1"?>
<!-- Generator: Adobe Illustrator 18.0.0, SVG Export Plug-In . SVG Version: 6.00 Build 0)  -->
<!DOCTYPE svg PUBLIC "-//W3C//DTD SVG 1.0//EN" "http://www.w3.org/TR/2001/REC-SVG-20010904/DTD/svg10.dtd">
<svg version="1.0" id="Layer_1" xmlns="http://www.w3.org/2000/svg" xmlns:xlink="http://www.w3.org/1999/xlink" x="0px" y="0px"
	 viewBox="0 0 110 110" style="enable-background:new 0 0 110 110;" xml:space="preserve">
<path style="fill:#FFFFFF;" d="M108.75,37.039L96.677,25.298H1.25v44.003l5.997,5.997h5.068c1.28,5.386,6.127,9.405,11.898,9.405
	c5.771,0,10.619-4.019,11.898-9.405h37.518c1.28,5.386,6.127,9.405,11.898,9.405s10.618-4.019,11.898-9.405h11.323V37.039z
	 M24.214,82.202c-5.366,0-9.732-4.366-9.732-9.732c0-5.366,4.366-9.732,9.732-9.732s9.732,4.366,9.732,9.732
	C33.946,77.837,29.58,82.202,24.214,82.202z M36.438,72.798c0.003-0.109,0.008-0.217,0.008-0.327
	c0-6.745-5.487-12.232-12.232-12.232S11.982,65.726,11.982,72.47c0,0.11,0.005,0.218,0.008,0.327H8.282L3.75,68.265V27.798h91.911
	l1.028,1H6.75v19h54.5v25H36.438z M44.25,45.298v-14h17v14H44.25z M25.25,45.298h-16v-14h16V45.298z M26.25,31.298h17v14h-17V31.298
	z M62.25,31.298h17v14h-17V31.298z M85.529,82.202c-5.366,0-9.732-4.366-9.732-9.732c0-5.366,4.366-9.732,9.732-9.732
	c5.366,0,9.731,4.366,9.731,9.732C95.261,77.837,90.895,82.202,85.529,82.202z M106.25,72.798h-8.498
	c0.003-0.109,0.008-0.217,0.008-0.327c0-6.745-5.487-12.232-12.231-12.232S73.297,65.726,73.297,72.47
	c0,0.11,0.005,0.218,0.008,0.327H62.25v-25h44V72.798z M106.25,45.298h-0.961l-3.256-3.256l1.874-1.874l-0.707-0.707l-4.797,4.797
	l0.707,0.707l2.216-2.216l2.549,2.549H80.25v-14h19.01l6.99,6.797V45.298z"/>
</svg>
