<svg xmlns="http://www.w3.org/2000/svg" xmlns:xlink="http://www.w3.org/1999/xlink" version="1.0" xml:space="preserve" enable-background="new 0 0 1920 1080" width="722" height="510"><rect id="backgroundrect" width="100%" height="100%" x="0" y="0" fill="none" stroke="none"/><g class="currentLayer"><title>Layer 1</title><polygon points="0,135.79798889160156 45.35504150390625,135.79798889160156 86.53802490234375,416.09397888183594 102.50299072265625,416.09397888183594 102.50299072265625,194.57899475097656 159.468994140625,186.5959930419922 159.468994140625,213.08399963378906 142.05303955078125,214.7169952392578 135.7030029296875,473.0599822998047 53.3380126953125,452.3779754638672 " fill="#FFF" id="svg_1" class=""/><polygon points="186.68304443359375,210.72499084472656 186.68304443359375,180.9720001220703 260.34002685546875,172.6269989013672 260.34002685546875,210.72499084472656 " fill="#FFF" id="svg_2" class=""/><polygon points="172.53204345703125,236.84999084472656 210.44903564453125,236.84999084472656 223.51104736328125,452.3779754638672 172.53204345703125,452.3779754638672 " fill="#FFF" id="svg_3" class=""/><polygon points="241.2900390625,236.84999084472656 277.030029296875,236.84999084472656 290.093017578125,370.9199676513672 307.87200927734375,370.9199676513672 314.947021484375,191.67601013183594 381.52899169921875,179.70201110839844 377.9000244140625,206.37098693847656 351.7760009765625,205.46400451660156 338.35101318359375,412.10301208496094 256.71099853515625,412.10301208496094 " fill="#FFF" id="svg_4" class=""/><path d="M468.0670185546876,217.43799743652346 l-86.719,15.784 L371.3690185546875,441.4929974365234 h-24.492 v26.85 l64.949,-6.35 v-96.516 l30.116,0.7260000000000001 l7.801,111.574 l38.099,-4.7170000000000005 L468.0670185546876,217.43799743652346 zM408.74201855468755,325.74599743652345 v-63.316 h27.757 l6.35,63.316 H408.74201855468755 z" fill="#FFF" id="svg_5" class=""/><polygon points="499.8150634765625,157.2060089111328 547.3480224609375,146.1389923095703 547.3480224609375,427.88597106933594 627.1729736328125,424.07701110839844 627.1729736328125,462.71897888183594 521.948974609375,462.71897888183594 " fill="#FFF" id="svg_6" class=""/><polygon points="597.9639892578125,157.93199157714844 591.614013671875,135.79798889160156 655.656005859375,114.39100646972656 665.27099609375,157.93199157714844 " fill="#FFF" id="svg_7" class=""/><path d="M665.2710185546875,196.02999743652344 l-85.449,-10.341 v204.28 h42.634 l-3.991,-64.042 h37.917 l28.483,184.505 l37.191,-19.049 L665.2710185546875,196.02999743652344 zM614.6550185546876,287.8289974365234 v-61.683 h27.757 l8.708,61.683 H614.6550185546876 z" fill="#FFF" id="svg_8" class=""/><g id="svg_9" class=""><g id="svg_10"><path d="M4.195018554687522,55.98599743652346 h6.132 v-55.109 h-6.132 V55.98599743652346 zM102.62701855468754,50.569997436523465 h-1.6720000000000002 l-21.104,-49.694 h-11.468 v55.109 h6.132 v-49.694 h1.513 l21.423000000000002,49.694 h11.229 v-55.109 h-6.052 V50.569997436523465 zM195.88201855468753,29.90399743652344 c-2.337,-1.991 -6.305,-3.6100000000000003 -11.906,-4.8580000000000005 c-5.602,-1.247 -9.318,-2.495 -11.149000000000001,-3.7430000000000003 c-1.832,-1.247 -2.748,-3.544 -2.748,-6.889 c0,-5.999 3.982,-8.999 11.946,-8.999 c3.078,0 8.308,0.452 15.689,1.354 l0.557,-5.176 l-2.708,-0.3980000000000001 c-5.415,-0.796 -10.062,-1.195 -13.937,-1.195 c-11.84,0 -17.759,4.938 -17.759,14.813 c0,4.938 1.3,8.455 3.902,10.552 c2.601,2.098 7.008,3.81 13.22,5.1370000000000005 c4.724,0.904 7.95,2.005 9.676,3.305 c1.725,1.302 2.588,3.438 2.588,6.411 c0,7.38 -3.93,11.07 -11.786,11.07 c-3.77,0 -9.266,-0.47800000000000004 -16.485,-1.433 l-0.6370000000000001,5.097 l2.867,0.3980000000000001 c5.839,0.902 10.697000000000001,1.354 14.574,1.354 c11.733,0 17.6,-5.654 17.6,-16.963 C199.38601855468755,35.17399743652345 198.21801855468755,31.894997436523425 195.88201855468753,29.90399743652344 zM248.84101855468748,6.371997436523429 h16.963 v49.614 h6.052 v-49.614 h16.804 v-5.495 h-39.819 V6.371997436523429 zM341.06001855468753,55.98599743652346 h6.132 v-55.109 h-6.132 V55.98599743652346 zM399.5130185546875,6.371997436523429 h16.963 v49.614 h6.052 v-49.614 h16.804 v-5.495 h-39.819 V6.371997436523429 zM523.8270185546876,39.420997436523464 c0,4.195 -1.1280000000000001,7.235 -3.3850000000000002,9.119 c-2.257,1.8850000000000002 -5.615,2.827 -10.074,2.827 c-8.601,0 -12.901,-3.982 -12.901,-11.946 v-38.545 h-6.132 v38.385 c0,6.16 1.605,10.619 4.818,13.379 c3.212,2.761 8.004,4.141 14.375,4.141 c6.371,0 11.189,-1.3800000000000001 14.454,-4.141 c3.265,-2.7600000000000002 4.898,-7.22 4.898,-13.379 v-38.385 h-6.052 V39.420997436523464 zM581.8820185546874,6.371997436523429 h16.963 v49.614 h6.052 v-49.614 h16.804 v-5.495 h-39.819 V6.371997436523429 zM709.0240185546875,7.0879974365234375 c-3.213,-4.671 -8.88,-7.008 -17.003,-7.008 s-13.777,2.349 -16.963,7.048 s-4.7780000000000005,11.893 -4.7780000000000005,21.582 c0,9.69 1.565,16.791 4.699,21.303 c3.132,4.513 8.826,6.769 17.082,6.769 c8.255,0 13.949,-2.202 17.082,-6.61 c3.132,-4.406 4.699,-11.52 4.699,-21.343 C713.8420185546875,19.007997436523425 712.2350185546875,11.76099743652344 709.0240185546875,7.0879974365234375 zM704.3250185546874,46.18999743652341 c-2.098,3.452 -6.186,5.176 -12.264,5.176 c-6.08,0 -10.181,-1.7640000000000002 -12.304,-5.296 c-2.124,-3.5300000000000002 -3.186,-9.33 -3.186,-17.401 c0,-8.07 1.075,-13.949 3.225,-17.64 c2.15,-3.6900000000000004 6.212,-5.535 12.185,-5.535 c5.973,0 10.047,1.859 12.224,5.575 c2.176,3.717 3.265,9.636 3.265,17.759 S706.4220185546876,42.739997436523424 704.3250185546874,46.18999743652341 z" fill="#FFF" id="svg_11"/></g></g></g></svg>