<svg xmlns="http://www.w3.org/2000/svg" xmlns:xlink="http://www.w3.org/1999/xlink" viewBox="0 0 254 179"><defs><style>.cls-1{fill:none;}.cls-2{fill:#09a2a0;}.cls-3{clip-path:url(#clip-path);}</style><clipPath id="clip-path"><rect class="cls-1" x="3.27" y="11.05" width="232.48" height="30.11"/></clipPath></defs><title>Logo INSTITUTo</title><g id="Camada_3" data-name="Camada 3"><path class="cls-2" d="M10.34,52.11c.49-.31.6-.43.71-.44,11-1.11,11.31-1.15,13.06,9.58,3,18.41,5.65,36.88,8.42,55.33,1.17,7.78,2.26,15.56,3.43,23.34.14.91.28,2.13.89,2.59A9.79,9.79,0,0,0,41,144.4c.36.06,1.44-1.95,1.57-3.08a69.59,69.59,0,0,0,.21-7.21Q43.2,105,43.63,76c.08-5.77.41-6.1,6.32-6.83,2.51-.31,5-.91,7.51-1.06,1-.06,3,.77,3,1.09-.14,2,1.71,5.05-1.6,5.71-2.69.54-3.07,1.85-3.12,4.12-.13,5.47-.54,10.93-.69,16.4q-.87,31.45-1.61,62.91c-.06,2.82-.81,4-3.76,3.26-6.48-1.55-13-3.07-19.5-4.42-2.37-.49-3.19-1.64-3.57-4Q18.8,105,10.77,56.91C10.52,55.35,10.48,53.75,10.34,52.11Z"/><path class="cls-2" d="M238.28,175.13c-2.36-15-4.57-29.06-6.78-43.12-.81-5.13-1.46-10.29-2.58-15.35a4.76,4.76,0,0,0-3.25-3c-10.29-1-10.58-.7-9.93,9.55.18,2.79.75,5.59.59,8.36a4.24,4.24,0,0,1-2.46,3.15,26.81,26.81,0,0,1-8.33.43c-.81-.09-2-2.2-2-3.4-.2-8.82-.14-17.64-.17-26.47,0-11.23,0-22.46-.21-33.68-.07-3.57,1.28-4.29,4.56-3.84,6.73.93,13.49,1.68,20.26,2.16,2.74.19,4.07,1,4.56,3.78,5.48,31.08,11.07,62.13,16.48,93.22a5,5,0,0,1-1.93,4C244.58,172.55,241.68,173.56,238.28,175.13ZM214.09,90.68q0,1.6,0,3.2c0,8.48.46,8.84,9.1,8.23,2.75-.19,3.85-1.29,3.36-4.05-.79-4.44-1.48-8.91-2.22-13.36s-1.84-4.92-7-4.68c-4.15.19-3.14,3.1-3.25,5.46C214,87.21,214.09,88.95,214.09,90.68Z"/><path class="cls-2" d="M146.55,143.34c0,4.14.21,8.31-.13,12.42-.1,1.25-1.58,3.2-2.69,3.4-4.84.87-9.77,1.21-14.67,1.76-2.35.26-3.86-.23-3.78-3.12.07-2.49.06-4.72,3.52-4.23,3.61.51,4.58-1.4,4.72-4.63.75-16.39,1.62-32.78,2.47-49.16.23-4.4.56-8.79.79-13.18.12-2.28,1-3.65,3.46-4,7.1-1.11,14.16-2.44,21.24-3.63,2.35-.39,3.39.71,3.56,3.09,1,14.35,2.12,28.71,3.3,43.05.93,11.29,2,22.56,3.06,33.84.26,2.77-.06,4.8-3.61,4.6a17.41,17.41,0,0,0-3.54.61c-2.92.46-4.13-.37-4.37-3.75-.71-10-2-19.88-3-29.82-.55-5.28-4.61-2.59-7.17-3-2.73-.46-3.26,1.45-3.2,3.79C146.62,135.32,146.55,139.33,146.55,143.34ZM145,115c3.81,0,7,.14,10.12-.1.8-.06,2.21-1.41,2.14-2-.69-6.22-1.4-12.46-2.59-18.6-.76-3.92-4.33-2.18-6.72-2.24-1,0-2.79,1.44-2.81,2.28C144.9,101,145,107.64,145,115Z"/><path class="cls-2" d="M134,65c1.26,6.78.49,8-5,8.49-2.29.19-3.24,1.1-3.37,3.47-.35,6.66-1,13.31-1.41,20-.86,13.86-1.76,27.72-2.37,41.6-.14,3.21-1.16,4.15-4.24,4.07-6.69-.17-13.38-.11-20.07,0-2.33,0-3.33-.72-3.54-3.14-.92-10.63-2-21.25-3-31.87-.7-7.43-1.34-14.87-2.09-23.16,3.32,0,6.36-.35,9.24.19,1,.19,2.18,2.47,2.37,3.91,1.05,8.06,1.82,16.16,2.71,24.25.52,4.77.88,9.58,1.74,14.29.22,1.18,2.09,2.06,3.2,3.08,1-1.17,2.7-2.3,2.77-3.52,1-17.2,1.79-34.41,2.53-51.63.27-6.29.22-6.41,6.56-7.59C124.67,66.52,129.34,65.77,134,65Z"/><path class="cls-2" d="M192,149c8-.56,15-.82,21.82-1.62,2.95-.34,3.9.1,4.37,3.21,1.47,9.72.79,8.59-7.76,8.72-8.14.12-16.28.53-24.43.54-.92,0-2.5-1.7-2.66-2.77-.74-5.28-1.22-10.6-1.58-15.92-1.17-17.3-2.19-34.62-3.39-51.92-.62-9-1.42-18.08-2.28-27.11-.26-2.74.56-4.27,3.35-4.81,3.52-.67,7-1.54,11.15-2.48Z"/><path class="cls-2" d="M81.5,156.61c-4.23-.39-7.93-.82-11.64-1-2.49-.14-3-1.41-3-3.65q.09-31.47,0-62.94c0-2.69.7-4.07,3.6-3.77a18.24,18.24,0,0,0,3.6,0c2.55-.25,3.52.82,3.68,3.39.61,9.71,1.52,19.4,2.12,29.1.72,11.58,1.25,23.17,1.83,34.76C81.74,153.64,81.59,154.82,81.5,156.61Z"/><path class="cls-2" d="M93.78,64a8.7,8.7,0,0,1,.52,1.72c0,11.48,1.18,9.17-8.73,9.39-3.6.08-7.21-.05-10.82,0-2.09,0-3.44-.57-3.22-2.91s-1.2-5.55,2.69-6.06C80.67,65.27,87.14,64.67,93.78,64Z"/><path class="cls-2" d="M206.16,51.18l21.41-6.73,2.61,12.7c-6.74.34-13.08,1.08-19.34.66C209.28,57.71,208,53.85,206.16,51.18Z"/><g class="cls-3"><image width="301" height="207" transform="translate(6.96 11.74) scale(0.8)" xlink:href="../../../ID Visual Vivalá/logo/logo cor.png"/></g></g></svg>